<svg width="35" height="35" viewBox="0 0 22 22" fill="none" xmlns="http://www.w3.org/2000/svg">
<path fill-rule="evenodd" clip-rule="evenodd" d="M11 22C17.0751 22 22 17.0751 22 11C22 4.92487 17.0751 0 11 0C4.92487 0 0 4.92487 0 11C0 17.0751 4.92487 22 11 22ZM11.5 5C11.5 4.72386 11.2761 4.5 11 4.5C10.7239 4.5 10.5 4.72386 10.5 5V6.19031C10.1247 6.25041 9.78873 6.34698 9.492 6.48C8.95066 6.72266 8.54933 7.04933 8.288 7.46C8.02666 7.86133 7.896 8.30933 7.896 8.804C7.896 9.41066 8.05 9.89133 8.358 10.246C8.67533 10.6007 9.05333 10.8667 9.492 11.044C9.93066 11.212 10.5187 11.3893 11.256 11.576C11.872 11.7253 12.3527 11.8653 12.698 11.996C13.0433 12.1173 13.3327 12.2947 13.566 12.528C13.8087 12.7613 13.93 13.074 13.93 13.466C13.93 13.9793 13.7107 14.3993 13.272 14.726C12.8333 15.0433 12.1753 15.202 11.298 15.202C10.6727 15.202 10.066 15.0947 9.478 14.88C9.11365 14.7412 8.7941 14.5773 8.51934 14.3883C8.27881 14.2229 7.92811 14.2791 7.79574 14.5393C7.71319 14.7015 7.74007 14.9006 7.87919 15.018C8.22035 15.3059 8.65995 15.5445 9.198 15.734C9.62091 15.8808 10.0549 15.9815 10.5 16.0359V17C10.5 17.2761 10.7239 17.5 11 17.5C11.2761 17.5 11.5 17.2761 11.5 17V16.0815C12.2148 16.0633 12.8241 15.9475 13.328 15.734C13.8787 15.4913 14.2847 15.1693 14.546 14.768C14.8167 14.3573 14.952 13.9047 14.952 13.41C14.952 12.8127 14.798 12.3413 14.49 11.996C14.182 11.6413 13.804 11.38 13.356 11.212C12.9173 11.0347 12.3387 10.8573 11.62 10.68C11.0133 10.5307 10.528 10.3953 10.164 10.274C9.80933 10.1433 9.51066 9.96133 9.268 9.728C9.03466 9.48533 8.918 9.168 8.918 8.776C8.918 8.25333 9.13266 7.82866 9.562 7.502C9.97301 7.18718 10.5684 7.01984 11.3481 7H11.5V6.998L11.508 6.998C11.956 6.998 12.4133 7.068 12.88 7.208C13.1761 7.29089 13.4608 7.40196 13.7344 7.5412C13.9822 7.66736 14.296 7.57393 14.4045 7.31789C14.4869 7.12347 14.4225 6.89564 14.2382 6.79249C13.9162 6.61219 13.5521 6.46602 13.146 6.354C12.614 6.19533 12.068 6.116 11.508 6.116L11.5 6.116V5Z" fill="#7CB342"/>
</svg>
